<svg width="50" height="50" viewBox="0 0 48 48" fill="none" xmlns="http://www.w3.org/2000/svg">
  <path 
    d="M33.51 25.13c-.05-4.36 3.56-6.46 3.72-6.56-2.04-2.98-5.22-3.39-6.35-3.45-2.7-.28-5.27 1.6-6.64 1.6-1.38 0-3.47-1.55-5.7-1.5-2.92.04-5.62 1.7-7.13 4.32-3.03 5.25-.77 13 2.16 17.27 1.44 2.06 3.14 4.36 5.38 4.27 2.17-.09 3-1.38 5.64-1.38 2.64 0 3.39 1.38 5.7 1.33 2.35-.05 3.84-2.09 5.27-4.18 1.66-2.44 2.34-4.8 2.38-4.92-.05-.02-4.57-1.76-4.63-6.8zM29.5 12.53c1.22-1.49 2.04-3.56 1.81-5.63-1.75.07-3.88 1.17-5.14 2.65-1.13 1.3-2.11 3.42-1.84 5.45 1.95.15 3.95-.99 5.17-2.47z"
    fill="black"
  />
</svg>
