<svg xmlns="http://www.w3.org/2000/svg" viewBox="0 0 48 48" width="48px" height="48px">
  <path fill="#EA4335" d="M24 9.5c3.54 0 6.71 1.22 9.21 3.61l6.84-6.84C36.02 2.69 30.47 0 24 0 14.64 0 6.48 5.52 2.56 13.5l7.98 6.19C12.2 13.74 17.63 9.5 24 9.5z"/>
  <path fill="#34A853" d="M46.98 24.5c0-1.56-.14-3.06-.39-4.5H24v9h12.94c-.58 2.94-2.32 5.44-4.94 7.13l7.56 5.87C44.54 38.04 46.98 31.77 46.98 24.5z"/>
  <path fill="#FBBC05" d="M10.54 28.69c-1.01-2.94-1.01-6.13 0-9.06L2.56 13.5C-.85 19.64-.85 28.36 2.56 34.5l7.98-5.81z"/>
  <path fill="#4285F4" d="M24 48c6.48 0 11.9-2.13 15.88-5.81l-7.56-5.87c-2.1 1.41-4.81 2.18-8.32 2.18-6.37 0-11.8-4.24-13.46-9.81l-7.98 6c3.92 7.98 12.08 13.31 21.44 13.31z"/>
</svg>
